<?xml version="1.0" standalone="no"?>
<!DOCTYPE svg PUBLIC "-//W3C//DTD SVG 1.1//EN" "http://www.w3.org/Graphics/SVG/1.1/DTD/svg11.dtd" >
<svg xmlns="http://www.w3.org/2000/svg">
<metadata></metadata>
<defs>
<font id="seravekmedium" horiz-adv-x="1075" >
<font-face units-per-em="2048" ascent="1536" descent="-512" />
<missing-glyph horiz-adv-x="440" />
<glyph unicode="&#xfb01;" horiz-adv-x="1234" d="M41 778v219h162v29q0 440 446 440q173 0 281 -51l-31 -201q-113 37 -217 37t-152.5 -49.5t-48.5 -154.5v-50h621v-997h-281v778h-340v-778h-278v778h-162z" />
<glyph unicode="&#xfb02;" horiz-adv-x="1335" d="M41 778v219h162v33q0 208 108.5 322t323.5 114q96 0 209 -20h280v-1157q0 -47 20 -70.5t66 -23.5q45 0 78 8l10 -197q-77 -24 -186 -24q-73 0 -127 23.5t-83.5 64t-43.5 88.5t-14 104v975q-75 16 -156 16q-109 0 -158 -53.5t-49 -165.5v-37h228v-219h-228v-778h-278v778 h-162z" />
<glyph unicode="&#xfb03;" horiz-adv-x="1886" d="M41 778v219h162v35q0 218 107.5 326t299.5 108q109 0 168 -20l-18 -215q-40 12 -96 12q-95 0 -139 -50t-44 -149v-47h373v29q0 440 446 440q173 0 281 -51l-31 -201q-113 37 -217 37t-152 -49.5t-48 -154.5v-50h620v-997h-280v778h-340v-778h-279v778h-373v-778h-278v778 h-162z" />
<glyph unicode="&#xfb04;" horiz-adv-x="1986" d="M41 778v219h162v35q0 218 107.5 326t299.5 108q109 0 168 -20l-18 -215q-40 12 -96 12q-95 0 -139 -50t-44 -149v-47h373v33q0 208 108.5 322t323.5 114q96 0 209 -20h281v-1157q0 -47 20 -70.5t66 -23.5q44 0 77 8l11 -197q-77 -24 -187 -24q-73 0 -127 23.5t-83.5 64 t-43.5 88.5t-14 104v975q-75 16 -156 16q-109 0 -157.5 -53.5t-48.5 -165.5v-37h227v-219h-227v-778h-279v778h-373v-778h-278v778h-162z" />
<glyph horiz-adv-x="2048" />
<glyph horiz-adv-x="2048" />
<glyph unicode="&#xd;" horiz-adv-x="2048" />
<glyph unicode=" "  horiz-adv-x="440" />
<glyph unicode="&#x09;" horiz-adv-x="440" />
<glyph unicode="&#xa0;" horiz-adv-x="440" />
<glyph unicode="!" horiz-adv-x="671" d="M174 147q0 67 44 114.5t118 47.5t118 -47.5t44 -114.5q0 -69 -44 -116t-118 -47t-118 47t-44 116zM188 940v424h295v-424l-65 -510h-164z" />
<glyph unicode="&#x22;" horiz-adv-x="993" d="M143 1364h283l-31 -510h-221zM567 1364h283l-31 -510h-221z" />
<glyph unicode="#" horiz-adv-x="1425" d="M92 330v184h219l37 352h-215v185h236l34 313h220l-35 -313h342l35 313h219l-35 -313h194v-185h-213l-36 -352h198v-184h-219l-35 -330h-219l35 330h-342l-35 -330h-219l35 330h-201zM530 514h344l37 352h-344z" />
<glyph unicode="$" horiz-adv-x="1036" d="M102 80l50 211q147 -70 317 -70q89 0 145 40t56 116q0 69 -49 114t-164 101q-179 85 -258.5 173.5t-79.5 233.5q0 141 76 229t204 115v267h250v-252q130 -9 252 -72l-47 -213q-152 70 -287 70q-174 0 -174 -133q0 -26 9.5 -48t22 -37.5t43 -36t53 -33t71.5 -38.5 q133 -70 190 -113q162 -125 162 -296q0 -145 -85 -248t-230 -142v-264h-250v250q-151 18 -277 76z" />
<glyph unicode="%" horiz-adv-x="2011" d="M102 983q0 77 23.5 148.5t68.5 129.5t119 93t166 35t166 -35t119 -93t68.5 -129.5t23.5 -148.5t-23.5 -147.5t-68.5 -128.5t-119 -92.5t-166 -34.5t-166 34.5t-119 92.5t-68.5 128.5t-23.5 147.5zM328 983q0 -101 37.5 -161t113.5 -60t114 60.5t38 160.5t-38.5 161.5 t-113.5 61.5t-113 -61.5t-38 -161.5zM600 76l625 1313l200 -97l-626 -1317zM1165 379q0 77 23.5 148t68.5 129.5t119 93t166 34.5t166 -34.5t119 -93t68.5 -129.5t23.5 -148t-23.5 -147.5t-68.5 -128.5t-119 -93t-166 -35t-166 35t-119 93t-68.5 128.5t-23.5 147.5z M1391 379q0 -101 37.5 -161t113.5 -60t114 60.5t38 160.5t-38.5 161.5t-113.5 61.5t-113 -61.5t-38 -161.5z" />
<glyph unicode="&#x26;" horiz-adv-x="1521" d="M92 313q0 61 21.5 116t63 101t83.5 80.5t100 73.5q-95 83 -147.5 168t-52.5 184q0 158 111 255.5t304 97.5q167 0 277.5 -81t110.5 -225q0 -53 -17 -103t-38.5 -85t-62.5 -77t-66.5 -63.5t-73.5 -58.5q154 -121 294 -213q81 110 181 322l204 -100q-100 -222 -198 -347 q43 -28 93.5 -59.5t111.5 -68.5t94 -58l-121 -197q-152 88 -330 207q-220 -207 -504 -207q-196 0 -317 90.5t-121 247.5zM373 334q0 -71 46.5 -111.5t137.5 -40.5q161 0 295 125q-184 125 -328 242q-36 -28 -58.5 -48.5t-46 -48t-35 -57t-11.5 -61.5zM414 1038 q0 -111 125 -217q49 38 71 56.5t53 51.5t43.5 66t12.5 72q0 57 -41.5 91t-106.5 34q-75 0 -116 -40t-41 -114z" />
<glyph unicode="'" horiz-adv-x="569" d="M143 1364h283l-31 -510h-221z" />
<glyph unicode="(" horiz-adv-x="743" d="M154 573q0 508 313 955l195 -109q-226 -431 -226 -846q0 -414 226 -845l-195 -109q-313 447 -313 954z" />
<glyph unicode=")" horiz-adv-x="743" d="M82 -272q225 430 225 845q0 416 -225 846l194 109q314 -449 314 -955q0 -505 -314 -954z" />
<glyph unicode="*" horiz-adv-x="841" d="M92 987l201 117l-201 117l64 108l202 -119v236h125v-236l203 119l64 -108l-203 -117l203 -117l-62 -110l-205 118v-233h-125v233l-206 -118z" />
<glyph unicode="+" horiz-adv-x="1216" d="M127 557v209h360v397h242v-397h361v-209h-361v-397h-242v397h-360z" />
<glyph unicode="," horiz-adv-x="589" d="M66 -229q58 131 85 243t31 256l275 -22q-18 -330 -209 -574z" />
<glyph unicode="-" horiz-adv-x="786" d="M123 424v227h541v-227h-541z" />
<glyph unicode="." horiz-adv-x="569" d="M123 147q0 67 44 114.5t118 47.5t117.5 -47t43.5 -115q0 -69 -43.5 -116t-117.5 -47t-118 47t-44 116z" />
<glyph unicode="/" horiz-adv-x="913" d="M82 -117l516 1565l244 -84l-516 -1569z" />
<glyph unicode="0" horiz-adv-x="1257" d="M92 682q0 211 58 368t180.5 248t298.5 91t298 -91t180 -248t58 -368t-58 -368t-180 -248t-298 -91t-298.5 91t-180.5 248t-58 368zM375 682q0 -234 60.5 -357.5t193.5 -123.5t193.5 123.5t60.5 357.5t-60.5 357.5t-193.5 123.5t-193.5 -123.5t-60.5 -357.5z" />
<glyph unicode="1" horiz-adv-x="778" d="M20 1190l437 174h168v-1364h-283v1061l-254 -92z" />
<glyph unicode="2" horiz-adv-x="1024" d="M41 164q242 245 346 362q59 65 92.5 105t74.5 99t60 114t19 110q0 95 -56 150t-153 55q-133 0 -244 -69l-65 196q160 103 362 103t320 -110t118 -302q0 -152 -70.5 -277.5t-203.5 -255.5q-109 -106 -233 -217h520v-227h-848z" />
<glyph unicode="3" horiz-adv-x="1003" d="M72 49l47 213q143 -63 278 -63q112 0 172 49.5t60 130.5q0 100 -82.5 148t-224.5 48h-115v228h76q150 0 233.5 55.5t83.5 151.5q0 73 -50.5 113t-141.5 40q-132 0 -246 -57l-49 203q144 80 352 80q183 0 300.5 -90t117.5 -242q0 -116 -65 -205t-191 -143 q124 -36 204 -123t80 -215q0 -179 -137.5 -287.5t-343.5 -108.5q-91 0 -187.5 20.5t-170.5 53.5z" />
<glyph unicode="4" horiz-adv-x="1167" d="M59 555l527 809h342v-799h184v-217h-184v-348h-277v348h-551zM322 565h329v543z" />
<glyph unicode="5" horiz-adv-x="1052" d="M102 37l39 219q143 -55 287 -55q121 0 190.5 50t69.5 144q0 201 -309 201h-221v768h737v-229h-457v-316h43q218 -2 354 -107.5t136 -299.5q0 -132 -71 -233t-190 -152.5t-266 -51.5q-89 0 -184 17.5t-158 44.5z" />
<glyph unicode="6" horiz-adv-x="1126" d="M92 518q0 315 183.5 533.5t521.5 337.5l90 -209q-192 -99 -264 -148q-155 -106 -217 -252q-16 -39 -27 -82q104 113 276 113q179 0 289.5 -108t110.5 -291q0 -186 -134.5 -311.5t-326.5 -125.5q-99 0 -183 31.5t-142 84.5t-98.5 123t-59.5 147t-19 157zM375 500 q-1 -61 10 -114.5t35 -98.5t67 -71t101 -26q90 0 145 60t55 153q0 90 -51 141.5t-143 51.5q-127 0 -219 -96z" />
<glyph unicode="7" horiz-adv-x="952" d="M72 1139v225h800l39 -223l-522 -1141h-280l532 1139h-569z" />
<glyph unicode="8" horiz-adv-x="1140" d="M109 336q0 61 22.5 116t66.5 102t85 80t102 73q-116 79 -178 157t-62 180q0 155 115.5 250t310.5 95q190 0 307 -88.5t117 -241.5q0 -53 -19.5 -102t-55.5 -91t-74.5 -74.5t-89.5 -68.5q62 -39 106.5 -74.5t85.5 -82t62.5 -103t21.5 -121.5q0 -102 -62 -187 t-167.5 -132.5t-231.5 -47.5q-211 0 -336.5 98t-125.5 263zM375 340q0 -76 52.5 -119t143.5 -43q86 0 140.5 46.5t54.5 117.5t-47 125.5t-148 118.5q-103 -76 -131 -104q-65 -65 -65 -142zM408 1051q0 -59 34.5 -103t128.5 -106q80 57 121 104.5t41 104.5q0 64 -44.5 100.5 t-117.5 36.5t-118 -38.5t-45 -98.5z" />
<glyph unicode="9" horiz-adv-x="1136" d="M82 952q0 196 129 316.5t332 120.5q126 0 225 -47.5t157.5 -126.5t88.5 -173t30 -196q0 -318 -182.5 -535t-521.5 -336l-90 209q84 38 141 68t122.5 74t108 89.5t79.5 110t57 140.5q-104 -113 -277 -113q-179 0 -289 108t-110 291zM348 963q0 -92 53 -143.5t142 -51.5 q127 0 219 96q1 61 -10 114.5t-35 98.5t-67 71t-101 26q-91 0 -146 -58t-55 -153z" />
<glyph unicode=":" horiz-adv-x="569" d="M123 147q0 67 44 114.5t118 47.5t117.5 -47t43.5 -115q0 -69 -43.5 -116t-117.5 -47t-118 47t-44 116zM123 743q0 67 44 114.5t118 47.5t117.5 -47t43.5 -115q0 -69 -43.5 -116t-117.5 -47t-118 47t-44 116z" />
<glyph unicode=";" horiz-adv-x="577" d="M51 -229q58 132 85.5 243.5t31.5 255.5l274 -22q-18 -330 -209 -574zM139 743q0 67 44 114.5t118 47.5t118 -47.5t44 -114.5q0 -69 -44 -116t-118 -47t-118 47t-44 116z" />
<glyph unicode="&#x3c;" horiz-adv-x="1210" d="M133 551v221l879 412l86 -195l-721 -327l721 -328l-86 -195z" />
<glyph unicode="=" horiz-adv-x="1249" d="M154 328v207h942v-207h-942zM154 788v207h942v-207h-942z" />
<glyph unicode="&#x3e;" horiz-adv-x="1210" d="M113 334l721 328l-721 327l86 195l878 -412v-221l-878 -412z" />
<glyph unicode="?" horiz-adv-x="970" d="M92 1288q164 101 381 101q181 0 298.5 -95.5t117.5 -269.5q0 -63 -18 -120.5t-56.5 -110.5t-79 -95.5t-107.5 -92t-117.5 -83t-131.5 -84.5l-131 189q24 18 78.5 57t77 57t63.5 50.5t59.5 54t40.5 50.5t30.5 57t8.5 57q0 72 -46 110.5t-126 38.5q-130 0 -268 -76z M248 147q0 67 44 114.5t118 47.5t117.5 -47t43.5 -115q0 -69 -43.5 -116t-117.5 -47t-118 47t-44 116z" />
<glyph unicode="@" horiz-adv-x="1734" d="M123 420q0 171 57.5 316.5t162.5 250t259 163t340 58.5q150 0 278 -44.5t215.5 -121.5t137 -183.5t49.5 -227.5q0 -213 -110.5 -346t-299.5 -133q-104 0 -168 51.5t-73 128.5q-44 -71 -105 -113.5t-125 -42.5q-94 0 -144 65.5t-50 164.5q0 117 42.5 209.5t131.5 149 t213 56.5q141 0 270 -78l-53 -301q-4 -28 -4 -43q0 -106 96 -106q87 0 144 91.5t57 238.5q0 135 -66.5 233.5t-182 148.5t-265.5 50q-286 0 -454.5 -172.5t-168.5 -452.5q0 -252 145.5 -395.5t419.5 -143.5q261 0 512 113l46 -139q-252 -123 -568 -123q-173 0 -315 54.5 t-233.5 148t-141 215.5t-49.5 260zM745 428q0 -42 15 -68t47 -26q69 0 145 131l35 192q-29 11 -61 11q-89 0 -135 -70.5t-46 -169.5z" />
<glyph unicode="A" horiz-adv-x="1425" d="M39 0l518 1364h311l518 -1364h-296l-97 287h-561l-96 -287h-297zM508 514h410l-205 621z" />
<glyph unicode="B" horiz-adv-x="1191" d="M143 0v1364h467q209 0 334 -88.5t125 -233.5q0 -243 -278 -329q151 -24 240 -108.5t89 -221.5q0 -177 -154 -280t-411 -103h-412zM422 217h151q130 0 197.5 50t67.5 136q0 90 -76 138.5t-203 48.5h-137v-373zM422 807h123q108 0 174.5 47.5t66.5 132.5q0 80 -56.5 120 t-156.5 40h-151v-340z" />
<glyph unicode="C" horiz-adv-x="1271" d="M78 682q0 154 47.5 283t137.5 223.5t228.5 147.5t311.5 53q104 0 210.5 -20t176.5 -54l-41 -211q-143 55 -303 55q-233 0 -357 -121.5t-124 -355.5t124 -355.5t357 -121.5q160 0 303 55l41 -211q-70 -34 -176.5 -54t-210.5 -20q-173 0 -311.5 53t-228.5 147.5 t-137.5 223.5t-47.5 283z" />
<glyph unicode="D" horiz-adv-x="1413" d="M143 0v1364h412q177 0 325.5 -51.5t251 -142t159.5 -216.5t57 -272t-57 -272t-159.5 -216.5t-251 -142t-325.5 -51.5h-412zM430 229h131q223 0 361.5 121.5t138.5 331.5t-138.5 331.5t-361.5 121.5h-131v-906z" />
<glyph unicode="E" d="M143 0v1364h820v-227h-533v-330h508v-227h-508v-353h539v-227h-826z" />
<glyph unicode="F" horiz-adv-x="1040" d="M143 0v1364h824v-229h-537v-361h512v-229h-512v-545h-287z" />
<glyph unicode="G" horiz-adv-x="1409" d="M76 664q0 328 198.5 526.5t544.5 198.5q253 0 436 -84l-41 -224q-189 78 -372 78q-226 0 -353 -125.5t-127 -371.5q0 -231 120 -350t356 -119q104 0 190 26v404h258v-557q-98 -41 -228.5 -66t-256.5 -25q-167 0 -304 50.5t-229 141t-142 218t-50 279.5z" />
<glyph unicode="H" horiz-adv-x="1425" d="M143 0v1364h287v-553h565v553h287v-1364h-287v573h-565v-573h-287z" />
<glyph unicode="I" horiz-adv-x="593" d="M154 0v1364h286v-1364h-286z" />
<glyph unicode="J" horiz-adv-x="589" d="M-27 -193q98 112 142.5 218t44.5 249v1090h286v-1042q-1 -102 -12 -180t-40 -161.5t-83.5 -163.5t-138.5 -165z" />
<glyph unicode="K" horiz-adv-x="1280" d="M143 0v1364h287v-655l473 655h332l-502 -674l537 -690h-355l-485 670v-670h-287z" />
<glyph unicode="L" horiz-adv-x="985" d="M143 0v1364h287v-1135h508v-229h-795z" />
<glyph unicode="M" horiz-adv-x="1748" d="M98 0l101 1364h258l417 -881l418 881h258l101 -1364h-281l-47 848l-301 -619h-295l-301 619l-47 -848h-281z" />
<glyph unicode="N" horiz-adv-x="1472" d="M143 0v1364h275l637 -893v893h274v-1364h-274l-637 893v-893h-275z" />
<glyph unicode="O" horiz-adv-x="1527" d="M78 682q0 116 29 221.5t87 194t139 153.5t192 101.5t239 36.5t238.5 -36.5t192 -101.5t139.5 -153.5t87 -194t29 -221.5t-29 -221.5t-87 -194t-139.5 -153.5t-192 -101.5t-238.5 -36.5t-239 36.5t-192 101.5t-139 153.5t-87 194t-29 221.5zM365 682q0 -140 43.5 -246.5 t135 -170.5t220.5 -64t220.5 64t135 170.5t43.5 246.5t-43.5 246.5t-135 170.5t-220.5 64t-220.5 -64t-135 -170.5t-43.5 -246.5z" />
<glyph unicode="P" horiz-adv-x="1126" d="M143 0v1364h373q168 0 296 -45.5t205 -144t77 -240.5q0 -109 -47 -195.5t-130 -141.5t-193 -83.5t-239 -28.5h-55v-485h-287zM430 709h70q146 0 226.5 56.5t80.5 168.5q0 103 -77 155t-216 52h-84v-432z" />
<glyph unicode="Q" horiz-adv-x="1527" d="M78 682q0 116 29 221.5t87 194t139 153.5t192 101.5t239 36.5t238.5 -36.5t192 -101.5t139.5 -153.5t87 -194t29 -221.5q0 -196 -81.5 -356.5t-233.5 -251.5l340 -219l-140 -205l-495 330q-58 -5 -76 -5q-128 0 -239 36.5t-192 101.5t-139 153.5t-87 194t-29 221.5z M365 682q0 -140 43.5 -246.5t135 -170.5t220.5 -64t220.5 64t135 170.5t43.5 246.5t-43.5 246.5t-135 170.5t-220.5 64t-220.5 -64t-135 -170.5t-43.5 -246.5z" />
<glyph unicode="R" horiz-adv-x="1273" d="M143 0v1364h408q172 0 300.5 -45t203.5 -140t75 -231q0 -286 -317 -397l461 -551h-356l-396 498h-92v-498h-287zM430 715h86q150 0 239 58.5t89 168.5q0 99 -79.5 149t-215.5 50h-119v-426z" />
<glyph unicode="S" horiz-adv-x="1079" d="M82 68l59 219q175 -84 353 -84q104 0 167.5 43t63.5 121q0 70 -57.5 117.5t-192.5 101.5q-189 76 -282 171.5t-93 239.5q0 187 126.5 289.5t344.5 102.5q213 0 381 -86l-53 -220q-156 78 -311 78q-93 0 -147 -34.5t-54 -104.5q0 -65 42 -103.5t167 -91.5q52 -22 91.5 -41 t85 -44.5t78.5 -50.5t65 -58.5t52 -69t32 -80t12 -94.5q0 -181 -141 -297.5t-369 -116.5q-226 0 -420 93z" />
<glyph unicode="T" horiz-adv-x="1118" d="M39 1135v229h1040v-229h-377v-1135h-286v1135h-377z" />
<glyph unicode="U" horiz-adv-x="1404" d="M139 492v872h287v-885q0 -129 70.5 -201.5t205.5 -72.5t206 72.5t71 201.5v885h287v-872q0 -234 -151.5 -375.5t-412.5 -141.5t-412 141.5t-151 375.5z" />
<glyph unicode="V" horiz-adv-x="1261" d="M6 1364h299l326 -1073l325 1073h299l-458 -1364h-332z" />
<glyph unicode="W" horiz-adv-x="2002" d="M33 1364h291l241 -1002l275 1002h323l275 -1002l241 1002h291l-381 -1364h-291l-297 1069l-296 -1069h-291z" />
<glyph unicode="X" horiz-adv-x="1302" d="M43 0l457 686l-449 678h311l289 -461l289 461h311l-448 -678l457 -686h-314l-295 465l-295 -465h-313z" />
<glyph unicode="Y" horiz-adv-x="1187" d="M0 1364h313l281 -600l280 600h314l-451 -854v-510h-286v510z" />
<glyph unicode="Z" horiz-adv-x="1161" d="M109 0v229l636 906h-612v229h930v-229l-637 -906h649v-229h-966z" />
<glyph unicode="[" horiz-adv-x="784" d="M184 -360v1867h498v-213h-217v-1441h217v-213h-498z" />
<glyph unicode="\" horiz-adv-x="913" d="M72 1364l243 84l516 -1565l-243 -88z" />
<glyph unicode="]" horiz-adv-x="784" d="M102 -147h217v1441h-217v213h498v-1867h-498v213z" />
<glyph unicode="^" horiz-adv-x="1077" d="M102 727l301 637h271l301 -637l-215 -88l-221 500l-222 -500z" />
<glyph unicode="_" horiz-adv-x="905" d="M-4 -326h913v-186h-913v186z" />
<glyph unicode="`" horiz-adv-x="888" d="M215 1483h309l150 -340h-232z" />
<glyph unicode="a" d="M82 262q0 134 90 207t254 84q70 5 246 10v35q0 197 -195 197q-142 0 -270 -66l-55 197q159 92 374 92q201 0 313.5 -110.5t112.5 -319.5v-588h-270v106q-130 -126 -313 -126q-129 0 -208 79.5t-79 202.5zM354 268q0 -48 31 -73t86 -25q111 0 201 72v157q-114 -8 -183 -18 q-67 -10 -101 -35.5t-34 -77.5z" />
<glyph unicode="b" horiz-adv-x="1169" d="M131 70v1376h281v-531q103 103 264 103q193 0 309.5 -142.5t116.5 -367.5q0 -239 -144 -383.5t-415 -144.5q-221 0 -412 90zM412 215q52 -25 135 -25q140 0 207 85.5t67 228.5q0 136 -56.5 216.5t-166.5 80.5q-105 0 -186 -68v-518z" />
<glyph unicode="c" horiz-adv-x="933" d="M63 500q0 229 139 373.5t388 144.5q75 0 153.5 -16.5t130.5 -43.5l-30 -200q-93 43 -213 43q-144 0 -215.5 -79.5t-71.5 -221.5q0 -143 71.5 -223t215.5 -80q120 0 213 43l30 -201q-51 -27 -130 -43t-154 -16q-166 0 -287 69t-180.5 185.5t-59.5 265.5z" />
<glyph unicode="d" horiz-adv-x="1171" d="M68 487q0 167 70 289t185 182t259 60q97 0 176 -27v455h280v-1446h-268v129q-112 -149 -307 -149q-173 0 -284 143.5t-111 363.5zM348 492q0 -135 51.5 -215t159.5 -80q114 0 199 92v495q-61 21 -135 21q-133 0 -204 -82t-71 -231z" />
<glyph unicode="e" horiz-adv-x="1038" d="M68 494q0 237 131.5 380.5t359.5 143.5q195 0 301.5 -116t106.5 -314q0 -78 -21 -160h-592q5 -115 71.5 -178.5t199.5 -63.5q160 0 290 60l35 -191q-150 -75 -362 -75q-245 0 -382.5 140t-137.5 374zM356 616h342q2 18 2 35q0 73 -32 121q-39 58 -125 57 q-83 0 -131 -58.5t-56 -154.5z" />
<glyph unicode="f" horiz-adv-x="743" d="M41 778v219h162v35q0 218 108.5 326t300.5 108q109 0 183 -26l-17 -211q-46 14 -112 14q-95 0 -140 -47t-45 -152v-47h244v-219h-244v-778h-278v778h-162z" />
<glyph unicode="g" horiz-adv-x="1064" d="M16 -188q0 167 258 229q-92 47 -92 139q0 64 41 108.5t99 71.5q-119 35 -184.5 118t-65.5 196q0 152 111 248t306 96q73 0 152 -21h389v-186h-158q35 -59 35 -137q0 -146 -113 -242t-305 -96q-18 0 -34 2q-23 -38 -23 -64q0 -60 111 -67l164 -10q160 -9 243.5 -72 t83.5 -191q0 -115 -82.5 -202.5t-211 -130.5t-279.5 -43q-89 0 -166.5 14t-141.5 43.5t-100.5 80t-36.5 116.5zM281 -135q0 -62 53 -92.5t149 -30.5q116 0 203.5 42t87.5 114q0 47 -36.5 67t-108.5 25l-228 18q-25 -14 -42 -25t-37 -29t-30.5 -40.5t-10.5 -48.5zM317 676 q0 -75 47 -118.5t125 -43.5t125.5 44.5t47.5 117.5q0 75 -47 119.5t-126 44.5q-80 0 -126 -44t-46 -120z" />
<glyph unicode="h" horiz-adv-x="1177" d="M133 0v1446h281v-569q99 141 280 141q75 0 136 -27t102.5 -73t69.5 -110t40.5 -136.5t12.5 -153.5v-518h-281v520q0 137 -43.5 206t-136.5 69q-110 0 -180 -97v-698h-281z" />
<glyph unicode="i" horiz-adv-x="546" d="M111 1288q0 68 45.5 115t115.5 47q71 0 117.5 -47t46.5 -115q0 -67 -46.5 -114.5t-117.5 -47.5q-69 0 -115 47.5t-46 114.5zM133 0v997h281v-997h-281z" />
<glyph unicode="j" horiz-adv-x="561" d="M-55 -283q106 114 154 225t48 265v790h281v-759q0 -220 -66.5 -373.5t-234.5 -306.5zM125 1288q0 68 46 115t116 47q71 0 117.5 -47t46.5 -115q0 -67 -46.5 -114.5t-117.5 -47.5q-69 0 -115.5 47.5t-46.5 114.5z" />
<glyph unicode="k" horiz-adv-x="1101" d="M133 0v1446h281v-918l331 469h312l-355 -491l404 -506h-334l-358 485v-485h-281z" />
<glyph unicode="l" horiz-adv-x="608" d="M119 262v1184h280v-1157q0 -47 20 -70.5t66 -23.5q45 0 78 8l10 -197q-77 -24 -186 -24q-73 0 -127 23.5t-83.5 64t-43.5 88.5t-14 104z" />
<glyph unicode="m" horiz-adv-x="1789" d="M133 0v997h270v-135q48 78 123.5 117t167.5 39q190 0 281 -172q66 91 149 131.5t191 40.5q75 0 134.5 -25t100 -69.5t67 -107.5t38.5 -137t12 -161v-518h-281v520q0 141 -40 208t-129 67q-109 0 -191 -115q14 -86 14 -162v-518h-280v520q0 140 -40.5 207.5t-129.5 67.5 q-106 0 -176 -97v-698h-281z" />
<glyph unicode="n" horiz-adv-x="1177" d="M133 0v997h270v-135q48 78 123.5 117t167.5 39q75 0 136 -27t102.5 -73t69.5 -110t40.5 -136.5t12.5 -153.5v-518h-281v520q0 137 -43.5 206t-136.5 69q-110 0 -180 -97v-698h-281z" />
<glyph unicode="o" horiz-adv-x="1163" d="M68 498q0 109 34 203.5t98 165t162.5 111t219.5 40.5t219.5 -40.5t162.5 -111t98 -165t34 -203.5q0 -146 -58 -262t-176.5 -186t-279.5 -70t-279.5 70t-176.5 186t-58 262zM348 498q0 -86 21.5 -153t76 -112t136.5 -45q62 0 108.5 25t73 69.5t39 98t12.5 117.5t-12.5 118 t-39 98.5t-73 69.5t-108.5 25t-108.5 -25t-73.5 -69.5t-39.5 -98.5t-12.5 -118z" />
<glyph unicode="p" horiz-adv-x="1169" d="M133 -422v1419h268v-127q109 148 304 148q181 0 290 -139.5t109 -368.5q0 -126 -40.5 -228t-110.5 -167.5t-163 -100t-200 -34.5q-95 0 -176 24v-426h-281zM414 213q50 -20 135 -20q139 0 206.5 84.5t67.5 230.5q0 131 -54 211t-159 80q-116 0 -196 -92v-494z" />
<glyph unicode="q" horiz-adv-x="1171" d="M68 485q0 250 148 391.5t411 141.5q234 0 411 -92v-1348h-280v502q-100 -100 -264 -100q-196 0 -311 139.5t-115 365.5zM348 487q0 -137 55.5 -214.5t167.5 -77.5q117 0 187 67v520q-61 23 -133 23q-133 0 -205 -83t-72 -235z" />
<glyph unicode="r" horiz-adv-x="776" d="M133 0v997h270v-176q62 187 259 187q41 0 83 -11v-239h-47q-199 0 -284 -127v-631h-281z" />
<glyph unicode="s" horiz-adv-x="886" d="M74 43l41 199q143 -58 276 -58q162 0 162 95q0 13 -3.5 24t-12.5 20.5t-17 16t-26 15t-29 13.5t-36.5 15t-39.5 16q-44 19 -67.5 29t-61.5 29.5t-58.5 35t-46.5 40t-39 49.5t-22.5 59.5t-9.5 73.5q0 150 107.5 226.5t279.5 76.5q182 0 317 -70l-43 -198q-136 61 -253 61 q-65 0 -98.5 -15t-33.5 -55q0 -13 6 -25t14 -19.5t24.5 -17t28 -15t36 -15.5t37.5 -16q10 -5 46 -20t54 -23t52 -26.5t53.5 -33.5t45 -39.5t39 -49.5t23.5 -58.5t10 -71.5q0 -157 -119.5 -244t-308.5 -87q-80 0 -170.5 17t-156.5 46z" />
<glyph unicode="t" horiz-adv-x="821" d="M31 778v219h162v258h280v-258h299v-219h-299v-428q0 -75 28 -113t99 -38q81 0 152 22l20 -198q-101 -43 -248 -43q-88 0 -153 27.5t-103 77t-56.5 114t-18.5 143.5v436h-162z" />
<glyph unicode="u" horiz-adv-x="1161" d="M115 479v518h280v-520q0 -138 40 -206t132 -68q111 0 181 96v698h280v-997h-270v135q-102 -155 -291 -155q-93 0 -163 40t-110 111t-59.5 158t-19.5 190z" />
<glyph unicode="v" horiz-adv-x="1021" d="M12 997h283l217 -735l215 735h283l-351 -997h-297z" />
<glyph unicode="w" horiz-adv-x="1601" d="M14 997h269l161 -657l220 657h274l219 -657l162 657h268l-287 -997h-262l-237 702l-238 -702h-262z" />
<glyph unicode="x" horiz-adv-x="1048" d="M16 0l361 504l-350 493h290l207 -303l207 303h291l-350 -493l360 -504h-293l-215 315l-215 -315h-293z" />
<glyph unicode="y" horiz-adv-x="1009" d="M10 997h291l211 -741l203 741h284l-477 -1419h-280l135 391z" />
<glyph unicode="z" horiz-adv-x="964" d="M100 0v203l461 590h-438v204h749v-204l-460 -588h477v-205h-789z" />
<glyph unicode="{" horiz-adv-x="897" d="M82 477v193q121 0 165 44.5t44 155.5v201q0 221 99 328.5t333 107.5h82v-213h-68q-87 0 -126.5 -46.5t-39.5 -151.5v-164q0 -146 -51.5 -231.5t-173.5 -127.5q122 -42 173.5 -127t51.5 -231v-164q0 -105 39.5 -151.5t126.5 -46.5h68v-213h-82q-234 0 -333 107.5 t-99 328.5v200q0 111 -44.5 156t-164.5 45z" />
<glyph unicode="|" horiz-adv-x="641" d="M205 -512v2048h231v-2048h-231z" />
<glyph unicode="}" horiz-adv-x="897" d="M92 -147h68q87 0 126.5 46.5t39.5 151.5v164q0 146 51.5 231t173.5 127q-122 42 -173.5 127.5t-51.5 231.5v164q0 105 -39.5 151.5t-126.5 46.5h-68v213h82q234 0 333 -107.5t99 -328.5v-201q0 -111 44 -155.5t165 -44.5v-193q-120 0 -164.5 -45t-44.5 -156v-200 q0 -221 -99 -328.5t-333 -107.5h-82v213z" />
<glyph unicode="~" horiz-adv-x="1224" d="M102 567q51 179 120.5 249.5t197.5 70.5q37 0 77 -12t63.5 -23t78.5 -39q10 -5 43.5 -23.5t47 -25t37 -14t42.5 -7.5q21 0 38.5 8.5t28 18.5t23.5 34t18.5 38t18.5 47l197 -86q-22 -63 -41.5 -107.5t-45.5 -86t-54.5 -66t-66.5 -39.5t-85 -15q-80 0 -236 78q-10 5 -37 19 t-38.5 19t-30.5 13.5t-33 11.5t-27 3q-49 0 -75.5 -33.5t-57.5 -112.5z" />
<glyph unicode="&#xa1;" horiz-adv-x="671" d="M174 854q0 69 44 116.5t118 47.5t118 -47.5t44 -116.5q0 -67 -44 -114.5t-118 -47.5t-118 47.5t-44 114.5zM188 61l66 510h164l65 -510v-423h-295v423z" />
<glyph unicode="&#xa2;" horiz-adv-x="1040" d="M113 682q0 186 96 312t268 167v256h246v-243q129 -14 205 -56l-39 -200q-104 40 -227 40q-127 0 -198 -71t-71 -205t71 -205t198 -71q123 0 227 40l39 -200q-76 -42 -205 -56v-243h-246v256q-172 41 -268 167t-96 312z" />
<glyph unicode="&#xa3;" horiz-adv-x="1128" d="M102 195q80 83 125 157t66 166h-189v221h211v170q0 233 113 356.5t326 123.5q177 0 293 -58l-37 -207q-100 41 -209 41t-157 -63t-48 -197v-166h317v-221h-342q-17 -86 -64.5 -164.5t-111.5 -130.5h592v-223h-831z" />
<glyph unicode="&#xa4;" horiz-adv-x="1320" d="M123 270l166 166q-80 110 -80 246q0 137 80 244l-166 168l170 159l180 -182q84 37 189 37q106 0 184 -37l184 182l168 -159l-166 -168q80 -107 80 -244q0 -136 -80 -246l166 -166l-168 -159l-184 180q-74 -35 -184 -35q-109 0 -189 35l-180 -180zM444 682q0 -104 60 -172 t158 -68q97 0 157 68t60 172t-60 172t-157 68q-98 0 -158 -68t-60 -172z" />
<glyph unicode="&#xa5;" horiz-adv-x="1175" d="M82 1364h293l213 -598l213 598h293l-228 -535h166v-196h-250l-53 -123v-45h303v-195h-303v-270h-280v270h-306v195h306v45l-56 123h-250v196h168z" />
<glyph unicode="&#xa6;" horiz-adv-x="641" d="M205 293h231v-805h-231v805zM205 731v805h231v-805h-231z" />
<glyph unicode="&#xa7;" horiz-adv-x="1271" d="M113 940q0 122 49 222t135 166t201 102t247 36q175 0 277 -41l-25 -157q-91 32 -209 32q-87 0 -139.5 -43t-52.5 -127q0 -31 10 -60.5t24 -52.5t46.5 -56.5t58.5 -56.5t80 -70q65 -56 105.5 -93t95.5 -98.5t86.5 -114.5t54.5 -124.5t23 -145.5q0 -124 -55.5 -230.5 t-148 -177t-211.5 -110t-247 -39.5q-158 0 -280 47l28 158q115 -39 244 -39q97 0 150 45.5t53 124.5q0 37 -14 71t-47 72.5t-61.5 65.5t-84.5 76q-109 96 -175 163t-119.5 142t-76 149.5t-22.5 163.5zM319 961q0 -111 61.5 -205.5t182.5 -204.5q16 -14 60.5 -53.5 t66.5 -60.5t60 -59.5t58.5 -68.5t43.5 -69.5t33 -81t10 -84.5q0 -69 -29 -129q52 50 85.5 120.5t33.5 147.5q0 53 -16.5 105t-39.5 92.5t-63.5 87t-73 77.5t-83.5 76q-68 59 -107 95.5t-81 83.5t-63 85t-34.5 85t-13.5 100q0 86 45 135q-136 -92 -136 -274z" />
<glyph unicode="&#xa8;" horiz-adv-x="1105" d="M215 1294q0 57 39 98.5t100 41.5t100.5 -41.5t39.5 -98.5q0 -59 -39 -99t-101 -40t-100.5 39.5t-38.5 99.5zM612 1294q0 57 39.5 98.5t100.5 41.5t100 -41.5t39 -98.5q0 -60 -38.5 -99.5t-100.5 -39.5t-101 40t-39 99z" />
<glyph unicode="&#xa9;" horiz-adv-x="1675" d="M123 682q0 145 52.5 274.5t145.5 225t227 151.5t290 56q206 0 370.5 -95.5t254 -256.5t89.5 -355t-89.5 -355t-254 -256.5t-370.5 -95.5q-156 0 -290 56t-227 151.5t-145.5 225t-52.5 274.5zM219 682q0 -124 43.5 -236t121.5 -197t196 -135.5t258 -50.5t257.5 50.5 t195.5 135.5t121.5 197t43.5 236t-43.5 236t-121.5 197t-195.5 135t-257.5 50q-112 0 -211 -32.5t-173 -90t-127.5 -135t-80.5 -169.5t-27 -191zM473 682q0 176 109.5 288.5t300.5 112.5q135 0 215 -41l-23 -143q-79 27 -166 27q-118 0 -180.5 -62.5t-62.5 -181.5 t62.5 -181.5t180.5 -62.5q87 0 166 27l23 -143q-80 -41 -215 -41q-191 0 -300.5 112.5t-109.5 288.5z" />
<glyph unicode="&#xaa;" horiz-adv-x="1001" d="M143 334v192h715v-192h-715zM162 846q0 94 60 144t169 59q68 6 193 10v20q0 123 -131 123q-107 0 -193 -47l-41 166q101 63 279 63q158 0 239.5 -83t81.5 -236v-408h-229v74q-90 -90 -221 -90q-95 0 -151 54.5t-56 150.5zM389 854q0 -63 74 -63q65 0 121 40v105 q-53 -3 -113 -12q-82 -12 -82 -70z" />
<glyph unicode="&#xab;" horiz-adv-x="1277" d="M82 494l360 436l179 -142l-248 -294l248 -295l-179 -142zM610 494l361 436l178 -142l-248 -294l248 -295l-178 -142z" />
<glyph unicode="&#xac;" horiz-adv-x="1239" d="M133 557v209h963v-606h-242v397h-721z" />
<glyph unicode="&#xad;" horiz-adv-x="786" d="M123 424v227h541v-227h-541z" />
<glyph unicode="&#xae;" horiz-adv-x="1138" d="M102 936q0 122 56.5 224.5t164.5 165.5t246 63t246 -63t164.5 -165.5t56.5 -224.5q0 -123 -56.5 -226t-164.5 -166t-246 -63t-246 63t-164.5 166t-56.5 226zM184 936q0 -164 106.5 -274.5t278.5 -110.5t278.5 110.5t106.5 274.5q0 163 -107 273t-278 110t-278 -110 t-107 -273zM414 731v436h178q73 0 118.5 -35t45.5 -94q0 -92 -94 -129l141 -178h-137l-121 160h-19v-160h-112zM526 969h29q41 0 64.5 15t23.5 44q0 24 -18.5 37.5t-49.5 13.5h-49v-110z" />
<glyph unicode="&#xaf;" horiz-adv-x="1046" d="M215 1182v213h616v-213h-616z" />
<glyph unicode="&#xb0;" horiz-adv-x="817" d="M123 1120q0 115 80 192t205 77q126 0 206 -77t80 -192q0 -114 -80 -191t-206 -77q-125 0 -205 77t-80 191zM287 1120q0 -59 32.5 -95t88.5 -36q58 0 90 35.5t32 95.5q0 61 -32 97t-90 36q-56 0 -88.5 -36t-32.5 -97z" />
<glyph unicode="&#xb1;" horiz-adv-x="1239" d="M137 0v205h965v-205h-965zM137 655v207h363v330h239v-330h363v-207h-363v-321h-239v321h-363z" />
<glyph unicode="&#xb2;" horiz-adv-x="765" d="M51 1004q203 166 232 190q6 5 26.5 22.5t29 25t26.5 24.5t27 27.5t22 27.5t19 30t11 29.5t5 32.5q0 48 -31.5 74t-89.5 26q-92 0 -185 -51l-47 170q119 70 279 70q137 0 225 -73.5t88 -196.5q0 -69 -30 -130t-74 -104.5t-113 -93.5q-69 -49 -82 -57h305v-187h-602z" />
<glyph unicode="&#xb3;" horiz-adv-x="743" d="M68 891l36 164q89 -39 191 -39q65 0 102 21t37 63q0 88 -141 88h-135v174h112q69 0 106.5 23t37.5 67q0 37 -29.5 55.5t-79.5 18.5q-92 0 -178 -39l-37 162q115 53 264 53q131 0 213 -56.5t82 -156.5q0 -71 -39.5 -123t-115.5 -78q178 -52 178 -201q0 -114 -97.5 -180.5 t-255.5 -66.5q-64 0 -135 14.5t-116 36.5z" />
<glyph unicode="&#xb4;" horiz-adv-x="888" d="M215 1143l150 340h309l-228 -340h-231z" />
<glyph unicode="&#xb5;" horiz-adv-x="1247" d="M133 -422v1419h281v-520q0 -137 40 -205.5t130 -68.5q103 0 182 96v698h281v-712q0 -57 20 -83t76 -26h33v-164q-73 -26 -156 -26q-190 0 -238 166q-48 -78 -124 -125t-169 -47q-114 0 -186 75q51 -60 81 -142.5t30 -172.5v-162h-281z" />
<glyph unicode="&#xb6;" horiz-adv-x="1224" d="M102 836q0 157 74 278.5t198.5 185.5t278.5 64h428v-1651h-213v1471h-213v-873q-157 0 -281 61t-198 181.5t-74 282.5z" />
<glyph unicode="&#xb7;" horiz-adv-x="569" d="M123 508q0 67 44 114.5t118 47.5t117.5 -47t43.5 -115q0 -69 -43.5 -116.5t-117.5 -47.5t-118 47.5t-44 116.5z" />
<glyph unicode="&#xb8;" horiz-adv-x="800" d="M215 -305q145 15 145 69q0 18 -12 31t-36 20.5t-43 11t-50 7.5l64 166h145l-29 -84q83 -8 135 -47.5t52 -108.5q0 -93 -98.5 -143.5t-254.5 -58.5z" />
<glyph unicode="&#xb9;" horiz-adv-x="632" d="M37 1567l309 114h164v-821h-240v576l-184 -58z" />
<glyph unicode="&#xba;" horiz-adv-x="1040" d="M123 1012q0 160 105.5 266t291.5 106q185 0 291.5 -106t106.5 -266q0 -158 -107 -264.5t-291 -106.5q-185 0 -291 106t-106 265zM158 334v192h727v-192h-727zM356 1012q0 -90 43 -143.5t121 -53.5q77 0 120.5 54t43.5 143q0 90 -43.5 144t-120.5 54q-78 0 -121 -53.5 t-43 -144.5z" />
<glyph unicode="&#xbb;" horiz-adv-x="1277" d="M129 199l248 295l-248 294l178 142l361 -436l-361 -437zM657 199l248 295l-248 294l179 142l360 -436l-360 -437z" />
<glyph unicode="&#xbc;" horiz-adv-x="1855" d="M92 1249l309 115h164v-821h-239v575l-185 -57zM455 74l704 1315l180 -99l-704 -1315zM1018 344l385 477h246v-463h125v-168h-125v-190h-222v190h-366zM1223 358h204v260z" />
<glyph unicode="&#xbd;" horiz-adv-x="1937" d="M92 1249l309 115h164v-821h-239v575l-185 -57zM455 74l704 1315l180 -99l-704 -1315zM1171 143q179 145 232 191q6 5 26.5 22.5t29 25t26.5 24.5t27 27.5t22 27.5t19 30t11 29.5t5 32.5q0 48 -31.5 74t-89.5 26q-91 0 -184 -51l-47 170q119 70 278 70q137 0 225 -74 t88 -197q0 -101 -55 -175.5t-162 -151.5q-77 -55 -82 -58h306v-186h-603z" />
<glyph unicode="&#xbe;" horiz-adv-x="1916" d="M123 573l37 164q89 -39 190 -39q65 0 102 21t37 63q0 88 -141 88h-135v174h113q69 0 106 23.5t37 67.5q0 37 -29.5 55t-79.5 18q-92 0 -178 -39l-37 162q115 53 265 53q131 0 213 -56.5t82 -156.5q0 -146 -156 -200q178 -52 178 -201q0 -114 -97.5 -181t-254.5 -67 q-64 0 -136 14.5t-116 36.5zM516 74l705 1315l180 -99l-705 -1315zM1079 344l385 477h246v-463h125v-168h-125v-190h-221v190h-367zM1284 358h205v260z" />
<glyph unicode="&#xbf;" horiz-adv-x="970" d="M92 -23q0 63 18 120.5t56.5 110.5t79 95.5t107.5 92t117.5 83t131.5 84.5l131 -188q-24 -18 -78.5 -57t-77 -57t-63.5 -50.5t-59.5 -54t-40.5 -50.5t-30.5 -57t-8.5 -57q0 -72 46 -111t126 -39q130 0 268 76l74 -205q-162 -100 -381 -100q-181 0 -298.5 95t-117.5 269z M410 854q0 69 43.5 116.5t117.5 47.5t118 -47.5t44 -116.5q0 -67 -44 -114.5t-118 -47.5t-117.5 47t-43.5 115z" />
<glyph unicode="&#xc0;" horiz-adv-x="1425" d="M39 0l518 1364h311l518 -1364h-296l-97 287h-561l-96 -287h-297zM334 1733h330l153 -246h-231zM508 514h410l-205 621z" />
<glyph unicode="&#xc1;" horiz-adv-x="1425" d="M39 0l518 1364h311l518 -1364h-296l-97 287h-561l-96 -287h-297zM508 514h410l-205 621zM598 1487l154 246h329l-252 -246h-231z" />
<glyph unicode="&#xc2;" horiz-adv-x="1425" d="M39 0l518 1364h311l518 -1364h-296l-97 287h-561l-96 -287h-297zM383 1487l190 246h279l190 -246h-239l-90 119l-90 -119h-240zM508 514h410l-205 621z" />
<glyph unicode="&#xc3;" horiz-adv-x="1425" d="M39 0l518 1364h311l518 -1364h-296l-97 287h-561l-96 -287h-297zM317 1544q31 116 83 168.5t153 52.5q80 0 182 -41q9 -3 36.5 -14t38 -14.5t27.5 -8t29 -4.5q16 0 28.5 5.5t24 20.5t17 24t18.5 34l160 -75q-41 -106 -88 -155.5t-133 -49.5q-76 0 -184 41 q-107 39 -138 39q-32 0 -50.5 -21t-31.5 -63zM508 514h410l-205 621z" />
<glyph unicode="&#xc4;" horiz-adv-x="1425" d="M39 0l518 1364h311l518 -1364h-296l-97 287h-561l-96 -287h-297zM358 1618q0 56 39 93.5t101 37.5q61 0 99 -37.5t38 -93.5q0 -59 -38 -96t-99 -37q-63 0 -101.5 37t-38.5 96zM508 514h410l-205 621zM788 1618q0 56 39 93.5t101 37.5q61 0 99 -37.5t38 -93.5 q0 -59 -38 -96t-99 -37q-63 0 -101.5 37t-38.5 96z" />
<glyph unicode="&#xc5;" horiz-adv-x="1425" d="M39 0l516 1360q-45 54 -45 121q0 74 55 130t148 56q95 0 150 -56t55 -130q0 -67 -48 -121l516 -1360h-296l-97 287h-561l-96 -287h-297zM508 514h410l-205 621zM633 1481q0 -36 21 -61t59 -25t60 25t22 61q0 35 -22 59.5t-60 24.5t-59 -24t-21 -60z" />
<glyph unicode="&#xc6;" horiz-adv-x="1837" d="M-10 0l790 1364h944v-227h-610l41 -330h537v-227h-508l47 -353h500v-227h-734l-36 287h-517l-157 -287h-297zM575 514h357l-64 576z" />
<glyph unicode="&#xc7;" horiz-adv-x="1271" d="M78 682q0 154 47.5 283t137.5 223.5t228.5 147.5t311.5 53q104 0 210.5 -20t176.5 -54l-41 -211q-143 55 -303 55q-233 0 -357 -121.5t-124 -355.5t124 -355.5t357 -121.5q160 0 303 55l41 -211q-68 -33 -168 -52.5t-199 -21.5l-20 -59q83 -8 134.5 -47.5t51.5 -108.5 q0 -93 -98 -143.5t-254 -58.5l-19 137q146 15 146 69q0 18 -12 31t-36 20.5t-43 11t-50 7.5l57 150q-193 23 -330 119t-204.5 244t-67.5 335z" />
<glyph unicode="&#xc8;" d="M143 0v1364h820v-227h-533v-330h508v-227h-508v-353h539v-227h-826zM236 1733h329l154 -246h-232z" />
<glyph unicode="&#xc9;" d="M143 0v1364h820v-227h-533v-330h508v-227h-508v-353h539v-227h-826zM385 1487l154 246h329l-252 -246h-231z" />
<glyph unicode="&#xca;" d="M143 0v1364h820v-227h-533v-330h508v-227h-508v-353h539v-227h-826zM225 1487l191 246h278l191 -246h-240l-90 119l-90 -119h-240z" />
<glyph unicode="&#xcb;" d="M143 0v1364h820v-227h-533v-330h508v-227h-508v-353h539v-227h-826zM201 1618q0 56 38.5 93.5t100.5 37.5q61 0 99 -37.5t38 -93.5q0 -59 -38 -96t-99 -37q-63 0 -101 37t-38 96zM631 1618q0 56 38.5 93.5t100.5 37.5q61 0 99 -37.5t38 -93.5q0 -59 -38 -96t-99 -37 q-63 0 -101 37t-38 96z" />
<glyph unicode="&#xcc;" horiz-adv-x="593" d="M-66 1733h330l154 -246h-232zM154 0v1364h286v-1364h-286z" />
<glyph unicode="&#xcd;" horiz-adv-x="593" d="M154 0v1364h286v-1364h-286zM178 1487l154 246h330l-252 -246h-232z" />
<glyph unicode="&#xce;" horiz-adv-x="593" d="M-33 1487l191 246h278l191 -246h-240l-90 119l-90 -119h-240zM154 0v1364h286v-1364h-286z" />
<glyph unicode="&#xcf;" horiz-adv-x="593" d="M-55 1618q0 56 38.5 93.5t100.5 37.5q61 0 99 -37.5t38 -93.5q0 -59 -38 -96t-99 -37q-63 0 -101 37t-38 96zM154 0v1364h286v-1364h-286zM375 1618q0 56 38.5 93.5t100.5 37.5q61 0 99 -37.5t38 -93.5q0 -59 -38 -96t-99 -37q-63 0 -101 37t-38 96z" />
<glyph unicode="&#xd0;" horiz-adv-x="1497" d="M72 569v226h155v569h412q177 0 325.5 -51.5t251 -142t159.5 -216.5t57 -272t-57 -272t-159.5 -216.5t-251 -142t-325.5 -51.5h-412v569h-155zM514 229h131q223 0 361.5 121.5t138.5 331.5t-138.5 331.5t-361.5 121.5h-131v-340h338v-226h-338v-340z" />
<glyph unicode="&#xd1;" horiz-adv-x="1472" d="M143 0v1364h275l637 -893v893h274v-1364h-274l-637 893v-893h-275zM340 1544q31 116 82.5 168.5t152.5 52.5q81 0 183 -41q9 -3 36.5 -14t38 -14.5t27.5 -8t29 -4.5q16 0 28.5 5.5t24 20.5t17 24t18.5 34l160 -75q-41 -105 -88.5 -155t-133.5 -50q-76 0 -184 41 q-7 3 -26 9.5t-26.5 9.5t-22 8t-23 7t-19.5 3.5t-20 1.5q-32 0 -50.5 -21t-31.5 -63z" />
<glyph unicode="&#xd2;" horiz-adv-x="1527" d="M78 682q0 116 29 221.5t87 194t139 153.5t192 101.5t239 36.5t238.5 -36.5t192 -101.5t139.5 -153.5t87 -194t29 -221.5t-29 -221.5t-87 -194t-139.5 -153.5t-192 -101.5t-238.5 -36.5t-239 36.5t-192 101.5t-139 153.5t-87 194t-29 221.5zM365 682q0 -140 43.5 -246.5 t135 -170.5t220.5 -64t220.5 64t135 170.5t43.5 246.5t-43.5 246.5t-135 170.5t-220.5 64t-220.5 -64t-135 -170.5t-43.5 -246.5zM408 1733h329l154 -246h-232z" />
<glyph unicode="&#xd3;" horiz-adv-x="1527" d="M78 682q0 116 29 221.5t87 194t139 153.5t192 101.5t239 36.5t238.5 -36.5t192 -101.5t139.5 -153.5t87 -194t29 -221.5t-29 -221.5t-87 -194t-139.5 -153.5t-192 -101.5t-238.5 -36.5t-239 36.5t-192 101.5t-139 153.5t-87 194t-29 221.5zM365 682q0 -140 43.5 -246.5 t135 -170.5t220.5 -64t220.5 64t135 170.5t43.5 246.5t-43.5 246.5t-135 170.5t-220.5 64t-220.5 -64t-135 -170.5t-43.5 -246.5zM635 1487l153 246h330l-252 -246h-231z" />
<glyph unicode="&#xd4;" horiz-adv-x="1527" d="M78 682q0 116 29 221.5t87 194t139 153.5t192 101.5t239 36.5t238.5 -36.5t192 -101.5t139.5 -153.5t87 -194t29 -221.5t-29 -221.5t-87 -194t-139.5 -153.5t-192 -101.5t-238.5 -36.5t-239 36.5t-192 101.5t-139 153.5t-87 194t-29 221.5zM365 682q0 -140 43.5 -246.5 t135 -170.5t220.5 -64t220.5 64t135 170.5t43.5 246.5t-43.5 246.5t-135 170.5t-220.5 64t-220.5 -64t-135 -170.5t-43.5 -246.5zM434 1487l191 246h278l191 -246h-240l-90 119l-90 -119h-240z" />
<glyph unicode="&#xd5;" horiz-adv-x="1527" d="M78 682q0 116 29 221.5t87 194t139 153.5t192 101.5t239 36.5t238.5 -36.5t192 -101.5t139.5 -153.5t87 -194t29 -221.5t-29 -221.5t-87 -194t-139.5 -153.5t-192 -101.5t-238.5 -36.5t-239 36.5t-192 101.5t-139 153.5t-87 194t-29 221.5zM365 682q0 -140 43.5 -246.5 t135 -170.5t220.5 -64t220.5 64t135 170.5t43.5 246.5t-43.5 246.5t-135 170.5t-220.5 64t-220.5 -64t-135 -170.5t-43.5 -246.5zM377 1544q31 116 82.5 168.5t152.5 52.5q81 0 183 -41q9 -3 36.5 -14t38 -14.5t27.5 -8t29 -4.5q16 0 28.5 5.5t24 20.5t17 24t18.5 34 l160 -75q-41 -105 -88.5 -155t-133.5 -50q-76 0 -184 41q-7 3 -26 9.5t-26.5 9.5t-22 8t-23 7t-19.5 3.5t-20 1.5q-32 0 -50.5 -21t-31.5 -63z" />
<glyph unicode="&#xd6;" horiz-adv-x="1527" d="M78 682q0 116 29 221.5t87 194t139 153.5t192 101.5t239 36.5t238.5 -36.5t192 -101.5t139.5 -153.5t87 -194t29 -221.5t-29 -221.5t-87 -194t-139.5 -153.5t-192 -101.5t-238.5 -36.5t-239 36.5t-192 101.5t-139 153.5t-87 194t-29 221.5zM365 682q0 -140 43.5 -246.5 t135 -170.5t220.5 -64t220.5 64t135 170.5t43.5 246.5t-43.5 246.5t-135 170.5t-220.5 64t-220.5 -64t-135 -170.5t-43.5 -246.5zM410 1618q0 56 38.5 93.5t100.5 37.5q61 0 99 -37.5t38 -93.5q0 -59 -38 -96t-99 -37q-63 0 -101 37t-38 96zM840 1618q0 56 38.5 93.5 t100.5 37.5q61 0 99 -37.5t38 -93.5q0 -59 -38 -96t-99 -37q-63 0 -101 37t-38 96z" />
<glyph unicode="&#xd7;" horiz-adv-x="1234" d="M143 344l318 318l-318 317l156 158l319 -320l318 320l156 -158l-318 -317l318 -318l-156 -158l-318 320l-319 -320z" />
<glyph unicode="&#xd8;" horiz-adv-x="1540" d="M84 -25l174 213q-85 97 -129.5 224t-44.5 270q0 116 29 221.5t87 194t139 153.5t192 101.5t239 36.5q216 0 385 -107l174 213l127 -106l-176 -215q86 -95 131 -222t45 -270q0 -116 -29 -221.5t-87 -194t-139.5 -153.5t-192 -101.5t-238.5 -36.5q-220 0 -385 105 l-172 -211zM371 682q0 -171 59 -283l569 695q-93 71 -229 71q-129 0 -220.5 -64.5t-135 -171.5t-43.5 -247zM539 268q94 -69 231 -69q129 0 220.5 64.5t135 171.5t43.5 247q0 164 -61 283z" />
<glyph unicode="&#xd9;" horiz-adv-x="1404" d="M139 492v872h287v-885q0 -129 70.5 -201.5t205.5 -72.5t206 72.5t71 201.5v885h287v-872q0 -234 -151.5 -375.5t-412.5 -141.5t-412 141.5t-151 375.5zM387 1733h330l153 -246h-231z" />
<glyph unicode="&#xda;" horiz-adv-x="1404" d="M139 492v872h287v-885q0 -129 70.5 -201.5t205.5 -72.5t206 72.5t71 201.5v885h287v-872q0 -234 -151.5 -375.5t-412.5 -141.5t-412 141.5t-151 375.5zM547 1487l153 246h330l-252 -246h-231z" />
<glyph unicode="&#xdb;" horiz-adv-x="1404" d="M139 492v872h287v-885q0 -129 70.5 -201.5t205.5 -72.5t206 72.5t71 201.5v885h287v-872q0 -234 -151.5 -375.5t-412.5 -141.5t-412 141.5t-151 375.5zM373 1487l190 246h279l190 -246h-239l-91 119l-90 -119h-239z" />
<glyph unicode="&#xdc;" horiz-adv-x="1404" d="M139 492v872h287v-885q0 -129 70.5 -201.5t205.5 -72.5t206 72.5t71 201.5v885h287v-872q0 -234 -151.5 -375.5t-412.5 -141.5t-412 141.5t-151 375.5zM348 1618q0 56 38.5 93.5t100.5 37.5q61 0 99.5 -37.5t38.5 -93.5q0 -59 -38.5 -96t-99.5 -37q-63 0 -101 37t-38 96z M778 1618q0 56 39 93.5t101 37.5q61 0 99 -37.5t38 -93.5q0 -59 -38 -96t-99 -37q-63 0 -101.5 37t-38.5 96z" />
<glyph unicode="&#xdd;" horiz-adv-x="1187" d="M0 1364h313l281 -600l280 600h314l-451 -854v-510h-286v510zM463 1487l153 246h330l-252 -246h-231z" />
<glyph unicode="&#xde;" horiz-adv-x="1138" d="M143 0v1364h287v-240h86q168 0 296 -45.5t205 -144t77 -240.5q0 -145 -82.5 -248t-217.5 -151.5t-309 -48.5h-55v-246h-287zM430 469h70q146 0 226.5 56.5t80.5 168.5q0 103 -77 155t-216 52h-84v-432z" />
<glyph unicode="&#xdf;" horiz-adv-x="1273" d="M133 0v973q0 241 139 367t369 126q184 0 301 -90.5t117 -236.5q0 -52 -19.5 -102.5t-37 -75t-52.5 -68.5q-12 -15 -35.5 -42.5t-34 -41.5t-20.5 -35.5t-10 -40.5q0 -10 3 -19t6.5 -16t12.5 -15.5t15 -13.5t20 -14.5t21.5 -14t25.5 -15t27 -15.5q37 -22 49.5 -29.5 t46 -30.5t47.5 -37t37.5 -40t34 -50t19 -57t8.5 -69q0 -140 -106 -228.5t-277 -88.5q-73 0 -148 12.5t-119 30.5l37 196q96 -35 199 -35q64 0 101.5 27t37.5 72q0 13 -3.5 24.5t-7.5 20.5t-15 19t-18 16t-24.5 16.5t-26.5 15.5t-32 17t-33 18q-118 64 -168.5 129.5 t-50.5 159.5q0 64 28 115t85 118q4 4 17.5 20t18 21.5t16 19.5t15.5 21.5t12 20.5t11 22t5.5 21t2.5 24q0 58 -43 91.5t-112 33.5q-103 0 -157 -70t-54 -206v-971h-281z" />
<glyph unicode="&#xe0;" d="M82 262q0 134 90 207t254 84q70 5 246 10v35q0 197 -195 197q-142 0 -270 -66l-55 197q159 92 374 92q201 0 313.5 -110.5t112.5 -319.5v-588h-270v106q-130 -126 -313 -126q-129 0 -208 79.5t-79 202.5zM209 1483h309l150 -340h-232zM354 268q0 -48 31 -73t86 -25 q111 0 201 72v157q-114 -8 -183 -18q-67 -10 -101 -35.5t-34 -77.5z" />
<glyph unicode="&#xe1;" d="M82 262q0 134 90 207t254 84q70 5 246 10v35q0 197 -195 197q-142 0 -270 -66l-55 197q159 92 374 92q201 0 313.5 -110.5t112.5 -319.5v-588h-270v106q-130 -126 -313 -126q-129 0 -208 79.5t-79 202.5zM354 268q0 -48 31 -73t86 -25q111 0 201 72v157q-114 -8 -183 -18 q-67 -10 -101 -35.5t-34 -77.5zM389 1143l150 340h309l-227 -340h-232z" />
<glyph unicode="&#xe2;" d="M82 262q0 134 90 207t254 84q70 5 246 10v35q0 197 -195 197q-142 0 -270 -66l-55 197q159 92 374 92q201 0 313.5 -110.5t112.5 -319.5v-588h-270v106q-130 -126 -313 -126q-129 0 -208 79.5t-79 202.5zM199 1143l221 340h254l221 -340h-236l-112 190l-113 -190h-235z M354 268q0 -48 31 -73t86 -25q111 0 201 72v157q-114 -8 -183 -18q-67 -10 -101 -35.5t-34 -77.5z" />
<glyph unicode="&#xe3;" d="M82 262q0 134 90 207t254 84q70 5 246 10v35q0 197 -195 197q-142 0 -270 -66l-55 197q159 92 374 92q201 0 313.5 -110.5t112.5 -319.5v-588h-270v106q-130 -126 -313 -126q-129 0 -208 79.5t-79 202.5zM166 1227q39 124 93.5 175.5t152.5 51.5q10 0 19.5 -0.5t19.5 -3 t17 -3.5t18.5 -5t16.5 -6t17.5 -7.5t16 -7t17.5 -8.5t17 -8q6 -3 23 -11t23 -10.5t19 -8t19.5 -7.5t15.5 -4t17 -2q18 0 31 5.5t25 20t19 27t21 39.5l156 -78q-59 -128 -106 -173.5t-129 -45.5q-8 0 -17.5 1t-16.5 2t-18 4t-17 4t-18 6t-16 6t-18 7t-16 7t-17 7.5t-16 6.5 q-10 4 -32.5 14t-32.5 14.5t-25 8.5t-27 4q-14 0 -26 -5.5t-19.5 -10.5t-17.5 -22t-14 -24.5t-17 -33.5zM354 268q0 -48 31 -73t86 -25q111 0 201 72v157q-114 -8 -183 -18q-67 -10 -101 -35.5t-34 -77.5z" />
<glyph unicode="&#xe4;" d="M82 262q0 134 90 207t254 84q70 5 246 10v35q0 197 -195 197q-142 0 -270 -66l-55 197q159 92 374 92q201 0 313.5 -110.5t112.5 -319.5v-588h-270v106q-130 -126 -313 -126q-129 0 -208 79.5t-79 202.5zM215 1294q0 57 39 98.5t100 41.5t100.5 -41.5t39.5 -98.5 q0 -59 -39 -99t-101 -40t-100.5 39.5t-38.5 99.5zM354 268q0 -48 31 -73t86 -25q111 0 201 72v157q-114 -8 -183 -18q-67 -10 -101 -35.5t-34 -77.5zM612 1294q0 57 39.5 98.5t100.5 41.5t100 -41.5t39 -98.5q0 -60 -38.5 -99.5t-100.5 -39.5t-101 40t-39 99z" />
<glyph unicode="&#xe5;" d="M82 262q0 134 90 207t254 84q70 5 246 10v35q0 197 -195 197q-142 0 -270 -66l-55 197q159 92 374 92q201 0 313.5 -110.5t112.5 -319.5v-588h-270v106q-130 -126 -313 -126q-129 0 -208 79.5t-79 202.5zM332 1321q0 74 55 130t148 56q94 0 149 -56t55 -130t-54.5 -129 t-149.5 -55q-93 0 -148 55t-55 129zM354 268q0 -48 31 -73t86 -25q111 0 201 72v157q-114 -8 -183 -18q-67 -10 -101 -35.5t-34 -77.5zM455 1321q0 -35 21.5 -58.5t58.5 -23.5t59 23.5t22 58.5t-22 59.5t-59 24.5t-58.5 -24.5t-21.5 -59.5z" />
<glyph unicode="&#xe6;" horiz-adv-x="1650" d="M82 262q0 267 336 295q124 11 260 18v27q0 199 -199 199q-143 0 -286 -68l-54 197q148 88 365 88q216 0 330 -144q119 144 337 144q197 0 302.5 -117.5t105.5 -312.5q0 -74 -20 -160h-592q2 -113 70.5 -177.5t199.5 -64.5q157 0 291 60l35 -191q-147 -75 -361 -75 q-257 0 -393 149q-186 -149 -410 -149q-149 0 -233 79t-84 203zM350 270q0 -49 32 -74.5t89 -25.5q133 0 252 84q-31 76 -39 147q-127 -12 -205 -22q-64 -10 -96.5 -34.5t-32.5 -74.5zM969 616h342q14 94 -27 153.5t-129 59.5q-80 0 -131.5 -59t-54.5 -154z" />
<glyph unicode="&#xe7;" horiz-adv-x="933" d="M63 500q0 229 139 373.5t388 144.5q75 0 153.5 -16.5t130.5 -43.5l-30 -200q-93 43 -213 43q-144 0 -215.5 -79.5t-71.5 -221.5q0 -143 71.5 -223t215.5 -80q120 0 213 43l30 -201q-93 -50 -249 -57l-21 -66q83 -8 135 -47.5t52 -108.5q0 -93 -98.5 -143.5t-254.5 -58.5 l-18 137q145 15 145 69q0 18 -12 31t-36 20.5t-43 11t-50 7.5l57 154q-199 32 -308.5 171t-109.5 341z" />
<glyph unicode="&#xe8;" horiz-adv-x="1038" d="M68 494q0 237 131.5 380.5t359.5 143.5q195 0 301.5 -116t106.5 -314q0 -78 -21 -160h-592q5 -115 71.5 -178.5t199.5 -63.5q160 0 290 60l35 -191q-150 -75 -362 -75q-245 0 -382.5 140t-137.5 374zM201 1483h309l149 -340h-231zM356 616h342q9 98 -30 155.5t-125 57.5 q-83 0 -131 -58.5t-56 -154.5z" />
<glyph unicode="&#xe9;" horiz-adv-x="1038" d="M68 494q0 237 131.5 380.5t359.5 143.5q195 0 301.5 -116t106.5 -314q0 -78 -21 -160h-592q5 -115 71.5 -178.5t199.5 -63.5q160 0 290 60l35 -191q-150 -75 -362 -75q-245 0 -382.5 140t-137.5 374zM356 616h342q9 98 -30 155.5t-125 57.5q-83 0 -131 -58.5t-56 -154.5z M406 1143l149 340h309l-227 -340h-231z" />
<glyph unicode="&#xea;" horiz-adv-x="1038" d="M68 494q0 237 131.5 380.5t359.5 143.5q195 0 301.5 -116t106.5 -314q0 -78 -21 -160h-592q5 -115 71.5 -178.5t199.5 -63.5q160 0 290 60l35 -191q-150 -75 -362 -75q-245 0 -382.5 140t-137.5 374zM190 1143l222 340h254l221 -340h-236l-112 190l-113 -190h-236z M356 616h342q9 98 -30 155.5t-125 57.5q-83 0 -131 -58.5t-56 -154.5z" />
<glyph unicode="&#xeb;" horiz-adv-x="1038" d="M68 494q0 237 131.5 380.5t359.5 143.5q195 0 301.5 -116t106.5 -314q0 -78 -21 -160h-592q5 -115 71.5 -178.5t199.5 -63.5q160 0 290 60l35 -191q-150 -75 -362 -75q-245 0 -382.5 140t-137.5 374zM205 1294q0 57 39 98.5t100 41.5t100 -41.5t39 -98.5 q0 -60 -38.5 -99.5t-100.5 -39.5t-100.5 39.5t-38.5 99.5zM356 616h342q9 98 -30 155.5t-125 57.5q-83 0 -131 -58.5t-56 -154.5zM602 1294q0 57 39 98.5t100 41.5t100.5 -41.5t39.5 -98.5q0 -59 -39 -99t-101 -40t-100.5 39.5t-38.5 99.5z" />
<glyph unicode="&#xec;" horiz-adv-x="546" d="M-70 1483h310l149 -340h-231zM133 0v997h281v-997h-281z" />
<glyph unicode="&#xed;" horiz-adv-x="546" d="M133 0v997h281v-997h-281zM170 1143l149 340h310l-228 -340h-231z" />
<glyph unicode="&#xee;" horiz-adv-x="546" d="M-74 1143l221 340h254l222 -340h-236l-113 190l-112 -190h-236zM133 0v997h281v-997h-281z" />
<glyph unicode="&#xef;" horiz-adv-x="546" d="M-63 1294q0 57 39 98.5t100 41.5t100 -41.5t39 -98.5q0 -60 -38.5 -99.5t-100.5 -39.5t-100.5 39.5t-38.5 99.5zM133 0v997h281v-997h-281zM334 1294q0 57 39 98.5t100 41.5t100 -41.5t39 -98.5q0 -60 -38.5 -99.5t-100.5 -39.5t-100.5 39.5t-38.5 99.5z" />
<glyph unicode="&#xf0;" horiz-adv-x="1148" d="M68 469q0 115 36 206.5t97.5 149t142 87.5t172.5 30q175 0 281 -70q-31 85 -87 146t-139 112l-155 -126l-84 94l114 94q-112 42 -251 59l51 215q228 -26 401 -108l154 127l80 -96l-119 -99q154 -104 239.5 -273t85.5 -390q0 -135 -33.5 -251t-97.5 -205t-165.5 -140 t-229.5 -51q-154 0 -267.5 67t-169.5 176.5t-56 245.5zM344 463q0 -126 53 -198t168 -72q69 0 118.5 31.5t75.5 85.5t37 111.5t11 123.5v129q-100 61 -209 61q-125 0 -189.5 -69.5t-64.5 -202.5z" />
<glyph unicode="&#xf1;" horiz-adv-x="1177" d="M133 0v997h270v-135q48 78 123.5 117t167.5 39q75 0 136 -27t102.5 -73t69.5 -110t40.5 -136.5t12.5 -153.5v-518h-281v520q0 137 -43.5 206t-136.5 69q-110 0 -180 -97v-698h-281zM215 1227q39 124 93.5 175.5t152.5 51.5q9 0 18 -1t16.5 -1.5t17.5 -3.5t15 -4 t16.5 -5.5t14.5 -5.5t16 -6.5t14.5 -6.5t16 -7.5t15.5 -7.5q8 -4 23 -11t22 -10.5t19 -8.5t19.5 -7t16 -4t16.5 -2q34 0 52.5 20.5t44.5 71.5l155 -78q-59 -128 -106 -173.5t-129 -45.5q-8 0 -17.5 1t-16.5 2t-18 4t-17 4t-18 6t-16 6t-18 7t-16 7t-17 7.5t-16 6.5 q-10 4 -32.5 14t-32.5 14.5t-25 8.5t-27 4q-14 0 -26 -5.5t-19.5 -10.5t-17.5 -22t-14 -24.5t-17 -33.5z" />
<glyph unicode="&#xf2;" horiz-adv-x="1163" d="M68 498q0 109 34 203.5t98 165t162.5 111t219.5 40.5t219.5 -40.5t162.5 -111t98 -165t34 -203.5q0 -146 -58 -262t-176.5 -186t-279.5 -70t-279.5 70t-176.5 186t-58 262zM238 1483h309l149 -340h-231zM348 498q0 -86 21.5 -153t76 -112t136.5 -45q62 0 108.5 25 t73 69.5t39 98t12.5 117.5t-12.5 118t-39 98.5t-73 69.5t-108.5 25t-108.5 -25t-73.5 -69.5t-39.5 -98.5t-12.5 -118z" />
<glyph unicode="&#xf3;" horiz-adv-x="1163" d="M68 498q0 109 34 203.5t98 165t162.5 111t219.5 40.5t219.5 -40.5t162.5 -111t98 -165t34 -203.5q0 -146 -58 -262t-176.5 -186t-279.5 -70t-279.5 70t-176.5 186t-58 262zM348 498q0 -86 21.5 -153t76 -112t136.5 -45q62 0 108.5 25t73 69.5t39 98t12.5 117.5t-12.5 118 t-39 98.5t-73 69.5t-108.5 25t-108.5 -25t-73.5 -69.5t-39.5 -98.5t-12.5 -118zM453 1143l149 340h309l-227 -340h-231z" />
<glyph unicode="&#xf4;" horiz-adv-x="1163" d="M68 498q0 109 34 203.5t98 165t162.5 111t219.5 40.5t219.5 -40.5t162.5 -111t98 -165t34 -203.5q0 -146 -58 -262t-176.5 -186t-279.5 -70t-279.5 70t-176.5 186t-58 262zM233 1143l222 340h254l221 -340h-236l-112 190l-113 -190h-236zM348 498q0 -86 21.5 -153 t76 -112t136.5 -45q62 0 108.5 25t73 69.5t39 98t12.5 117.5t-12.5 118t-39 98.5t-73 69.5t-108.5 25t-108.5 -25t-73.5 -69.5t-39.5 -98.5t-12.5 -118z" />
<glyph unicode="&#xf5;" horiz-adv-x="1163" d="M68 498q0 109 34 203.5t98 165t162.5 111t219.5 40.5t219.5 -40.5t162.5 -111t98 -165t34 -203.5q0 -146 -58 -262t-176.5 -186t-279.5 -70t-279.5 70t-176.5 186t-58 262zM205 1227q39 124 93.5 175.5t152.5 51.5q10 0 19.5 -0.5t19.5 -3t17 -3.5t18.5 -5t16.5 -6 t17.5 -7.5t16 -7t17.5 -8.5t17 -8q6 -3 23 -11t23 -10.5t19 -8t19.5 -7.5t15.5 -4t17 -2q18 0 31 5.5t25 20t19 27t21 39.5l156 -78q-59 -127 -106.5 -173t-129.5 -46q-8 0 -17.5 1t-16.5 2t-18 4t-17 4t-18 6t-16 6t-18 7t-16 7t-17 7.5t-16 6.5q-11 5 -32.5 14.5t-32 14 t-25 8.5t-26.5 4q-18 0 -31 -5.5t-25 -21.5t-18.5 -28t-20.5 -41zM348 498q0 -86 21.5 -153t76 -112t136.5 -45q62 0 108.5 25t73 69.5t39 98t12.5 117.5t-12.5 118t-39 98.5t-73 69.5t-108.5 25t-108.5 -25t-73.5 -69.5t-39.5 -98.5t-12.5 -118z" />
<glyph unicode="&#xf6;" horiz-adv-x="1163" d="M68 498q0 109 34 203.5t98 165t162.5 111t219.5 40.5t219.5 -40.5t162.5 -111t98 -165t34 -203.5q0 -146 -58 -262t-176.5 -186t-279.5 -70t-279.5 70t-176.5 186t-58 262zM244 1294q0 57 39 98.5t100 41.5t100 -41.5t39 -98.5q0 -60 -38.5 -99.5t-100.5 -39.5 t-100.5 39.5t-38.5 99.5zM348 498q0 -86 21.5 -153t76 -112t136.5 -45q62 0 108.5 25t73 69.5t39 98t12.5 117.5t-12.5 118t-39 98.5t-73 69.5t-108.5 25t-108.5 -25t-73.5 -69.5t-39.5 -98.5t-12.5 -118zM641 1294q0 57 39 98.5t100 41.5t100.5 -41.5t39.5 -98.5 q0 -59 -39 -99t-101 -40t-100.5 39.5t-38.5 99.5z" />
<glyph unicode="&#xf7;" horiz-adv-x="1228" d="M133 557v209h963v-209h-963zM461 264q0 64 44 108t109 44q64 0 108 -44t44 -108t-43.5 -106.5t-108.5 -42.5t-109 42.5t-44 106.5zM461 1057q0 64 44 107.5t109 43.5t108.5 -43.5t43.5 -107.5t-43.5 -107t-108.5 -43t-109 43t-44 107z" />
<glyph unicode="&#xf8;" horiz-adv-x="1171" d="M72 -51l139 174q-139 142 -139 375q0 109 34 203.5t98 165t162.5 111t219.5 40.5q154 0 278 -70l140 176l96 -77l-139 -175q139 -142 139 -374q0 -146 -58 -262t-176.5 -186t-279.5 -70t-279 67l-139 -174zM352 498q0 -96 25 -164l342 432q-53 43 -133 43 q-62 0 -108.5 -25t-73.5 -69.5t-39.5 -98.5t-12.5 -118zM451 229q53 -41 135 -41q62 0 108.5 25t73 69.5t39 98t12.5 117.5q0 93 -26 164z" />
<glyph unicode="&#xf9;" horiz-adv-x="1161" d="M115 479v518h280v-520q0 -138 40 -206t132 -68q111 0 181 96v698h280v-997h-270v135q-102 -155 -291 -155q-93 0 -163 40t-110 111t-59.5 158t-19.5 190zM287 1483h309l149 -340h-231z" />
<glyph unicode="&#xfa;" horiz-adv-x="1161" d="M115 479v518h280v-520q0 -138 40 -206t132 -68q111 0 181 96v698h280v-997h-270v135q-102 -155 -291 -155q-93 0 -163 40t-110 111t-59.5 158t-19.5 190zM428 1143l150 340h309l-228 -340h-231z" />
<glyph unicode="&#xfb;" horiz-adv-x="1161" d="M115 479v518h280v-520q0 -138 40 -206t132 -68q111 0 181 96v698h280v-997h-270v135q-102 -155 -291 -155q-93 0 -163 40t-110 111t-59.5 158t-19.5 190zM236 1143l221 340h254l221 -340h-236l-112 190l-113 -190h-235z" />
<glyph unicode="&#xfc;" horiz-adv-x="1161" d="M115 479v518h280v-520q0 -138 40 -206t132 -68q111 0 181 96v698h280v-997h-270v135q-102 -155 -291 -155q-93 0 -163 40t-110 111t-59.5 158t-19.5 190zM246 1294q0 57 39 98.5t100 41.5t100 -41.5t39 -98.5q0 -60 -38.5 -99.5t-100.5 -39.5t-100.5 39.5t-38.5 99.5z M643 1294q0 57 39 98.5t100 41.5t100.5 -41.5t39.5 -98.5q0 -59 -39 -99t-101 -40t-100.5 39.5t-38.5 99.5z" />
<glyph unicode="&#xfd;" horiz-adv-x="1009" d="M10 997h291l211 -741l203 741h284l-477 -1419h-280l135 391zM369 1143l149 340h309l-227 -340h-231z" />
<glyph unicode="&#xfe;" horiz-adv-x="1169" d="M133 -422v1868h281v-561q107 133 291 133q181 0 290 -139.5t109 -368.5q0 -126 -40.5 -228t-110.5 -167.5t-163 -100t-200 -34.5q-95 0 -176 24v-426h-281zM414 213q50 -20 135 -20q139 0 206.5 84.5t67.5 230.5q0 131 -54 211t-159 80q-116 0 -196 -92v-494z" />
<glyph unicode="&#xff;" horiz-adv-x="1009" d="M10 997h291l211 -741l203 741h284l-477 -1419h-280l135 391zM176 1294q0 57 39 98.5t100 41.5t100.5 -41.5t39.5 -98.5q0 -59 -39 -99t-101 -40t-100.5 39.5t-38.5 99.5zM573 1294q0 57 39.5 98.5t100.5 41.5t100 -41.5t39 -98.5q0 -60 -38.5 -99.5t-100.5 -39.5t-101 40 t-39 99z" />
<glyph unicode="&#x152;" horiz-adv-x="1994" d="M74 682q0 147 48.5 275.5t139 224.5t229.5 151.5t310 55.5q105 0 262 -25h819v-227h-532v-330h508v-227h-508v-353h538v-227h-825q-157 -25 -262 -25q-171 0 -310 55.5t-229.5 151.5t-139 224.5t-48.5 275.5zM360 682q0 -225 119.5 -351t345.5 -126q125 0 238 24v906 q-113 24 -238 24q-226 0 -345.5 -126t-119.5 -351z" />
<glyph unicode="&#x153;" horiz-adv-x="1785" d="M68 498q0 109 34.5 203.5t99 165t163 111t219.5 40.5q115 0 203 -39t161 -123q124 162 350 162q194 0 305 -118.5t111 -311.5q0 -76 -20 -160h-596q7 -242 274 -242q153 0 291 60l37 -191q-61 -35 -162 -55t-211 -20q-123 0 -225.5 44.5t-155.5 118.5 q-62 -74 -157.5 -118.5t-206.5 -44.5q-164 0 -282 70t-175 185.5t-57 262.5zM348 498q0 -144 61.5 -227t174.5 -83q112 0 173.5 85.5t61.5 224.5t-61.5 225t-173.5 86q-113 0 -174.5 -83.5t-61.5 -227.5zM1104 616h342q6 54 -5.5 100.5t-50.5 80.5t-102 34q-76 0 -128 -59 t-56 -156z" />
<glyph unicode="&#x178;" horiz-adv-x="1187" d="M0 1364h313l281 -600l280 600h314l-451 -854v-510h-286v510zM240 1618q0 56 38.5 93.5t100.5 37.5q61 0 99 -37.5t38 -93.5q0 -59 -38 -96t-99 -37q-63 0 -101 37t-38 96zM670 1618q0 56 38.5 93.5t100.5 37.5q61 0 99 -37.5t38 -93.5q0 -59 -38 -96t-99 -37 q-63 0 -101 37t-38 96z" />
<glyph unicode="&#x2c6;" horiz-adv-x="1126" d="M215 1143l221 340h254l221 -340h-235l-113 190l-112 -190h-236z" />
<glyph unicode="&#x2dc;" horiz-adv-x="1122" d="M174 1227q39 124 93.5 175.5t152.5 51.5q9 0 18 -1t16.5 -1.5t17.5 -3.5t15 -4t16.5 -5.5t14.5 -5.5t16 -6.5t14.5 -6.5t16 -7.5t15.5 -7.5q8 -4 23 -11t22 -10.5t19 -8.5t19.5 -7t16 -4t16.5 -2q34 0 52.5 20.5t44.5 71.5l155 -78q-59 -128 -106 -173.5t-129 -45.5 q-8 0 -17.5 1t-16.5 2t-18 4t-17 4t-18 6t-16 6t-18 7t-16 7t-17 7.5t-16 6.5q-10 4 -32.5 14t-32.5 14.5t-25 8.5t-27 4q-14 0 -26 -5.5t-19.5 -10.5t-17.5 -22t-14 -24.5t-17 -33.5z" />
<glyph unicode="&#x2000;" horiz-adv-x="883" />
<glyph unicode="&#x2001;" horiz-adv-x="1767" />
<glyph unicode="&#x2002;" horiz-adv-x="883" />
<glyph unicode="&#x2003;" horiz-adv-x="1767" />
<glyph unicode="&#x2004;" horiz-adv-x="589" />
<glyph unicode="&#x2005;" horiz-adv-x="441" />
<glyph unicode="&#x2006;" horiz-adv-x="294" />
<glyph unicode="&#x2007;" horiz-adv-x="294" />
<glyph unicode="&#x2008;" horiz-adv-x="220" />
<glyph unicode="&#x2009;" horiz-adv-x="353" />
<glyph unicode="&#x200a;" horiz-adv-x="98" />
<glyph unicode="&#x2010;" horiz-adv-x="786" d="M123 424v227h541v-227h-541z" />
<glyph unicode="&#x2011;" horiz-adv-x="786" d="M123 424v227h541v-227h-541z" />
<glyph unicode="&#x2012;" horiz-adv-x="786" d="M123 424v227h541v-227h-541z" />
<glyph unicode="&#x2013;" horiz-adv-x="1112" d="M133 543v219h846v-219h-846z" />
<glyph unicode="&#x2014;" horiz-adv-x="1656" d="M123 424v227h1411v-227h-1411z" />
<glyph unicode="&#x2018;" horiz-adv-x="577" d="M102 881q6 306 209 565l185 -98q-112 -221 -127 -494z" />
<glyph unicode="&#x2019;" horiz-adv-x="577" d="M102 952q112 221 127 494l267 -27q-6 -306 -209 -565z" />
<glyph unicode="&#x201a;" horiz-adv-x="591" d="M66 -223q112 221 127 493l266 -26q-6 -307 -209 -566z" />
<glyph unicode="&#x201c;" horiz-adv-x="1017" d="M102 881q6 306 209 565l185 -98q-112 -221 -127 -494zM543 881q6 306 209 565l184 -98q-112 -221 -127 -494z" />
<glyph unicode="&#x201d;" horiz-adv-x="1017" d="M102 952q112 221 127 494l267 -27q-6 -306 -209 -565zM543 952q112 221 127 494l266 -27q-6 -306 -209 -565z" />
<glyph unicode="&#x201e;" horiz-adv-x="1032" d="M66 -223q112 221 127 493l266 -26q-6 -307 -209 -566zM506 -223q112 221 127 493l266 -26q-6 -307 -209 -566z" />
<glyph unicode="&#x2022;" horiz-adv-x="876" d="M143 580q0 124 83.5 210.5t209.5 86.5q128 0 212.5 -86.5t84.5 -210.5q0 -122 -85 -207.5t-212 -85.5q-126 0 -209.5 85.5t-83.5 207.5z" />
<glyph unicode="&#x2026;" horiz-adv-x="1708" d="M123 147q0 67 44 114.5t118 47.5t117.5 -47t43.5 -115q0 -69 -43.5 -116t-117.5 -47t-118 47t-44 116zM692 147q0 67 44 114.5t118 47.5t118 -47.5t44 -114.5q0 -69 -44 -116t-118 -47t-118 47t-44 116zM1262 147q0 68 43.5 115t117.5 47t118 -47.5t44 -114.5 q0 -69 -44 -116t-118 -47t-117.5 47t-43.5 116z" />
<glyph unicode="&#x202f;" horiz-adv-x="353" />
<glyph unicode="&#x2039;" horiz-adv-x="749" d="M82 494l360 436l179 -142l-248 -294l248 -295l-179 -142z" />
<glyph unicode="&#x203a;" horiz-adv-x="749" d="M129 199l248 295l-248 294l178 142l361 -436l-361 -437z" />
<glyph unicode="&#x205f;" horiz-adv-x="441" />
<glyph unicode="&#x20ac;" horiz-adv-x="1179" d="M72 424v172h166q-5 68 -5 86q0 14 5 86h-166v172h190q51 217 192 333t357 116q164 0 276 -50l-26 -200q-83 30 -201 30q-134 0 -210 -57t-107 -172h440v-172h-467q-2 -29 -2 -86q0 -59 2 -86h467v-172h-440q31 -115 107 -172t210 -57q115 0 201 28l26 -198 q-112 -50 -276 -50q-216 0 -357 116t-192 333h-190z" />
<glyph unicode="&#x2122;" horiz-adv-x="1468" d="M61 1247v117h502v-117h-180v-532h-141v532h-181zM645 715l49 649h137l185 -401l184 401h137l49 -649h-137l-28 401l-129 -289h-152l-129 289l-29 -401h-137z" />
<glyph unicode="&#xe000;" horiz-adv-x="993" d="M0 0v993h993v-993h-993z" />
</font>
</defs>
</svg>
